<svg xmlns="http://www.w3.org/2000/svg" width="880" height="400" viewBox="0 0 880 400" role="img" aria-label="Hand-drawn chart of daily AI coding token usage, 2026-07-28 to 2026-08-26">
<style>
svg{--f:Poppins,Arial,"Helvetica Neue",sans-serif;--fs:Lora,Georgia,"Iowan Old Style",serif;--fm:ui-monospace,"SF Mono",Menlo,Consolas,monospace;--surface:#faf9f5; --primary:#141413; --secondary:#53524b; --muted:#8a887f; --grid:#e8e6dc; --axis:#cbc8bc; --claude:#d06a41; --codex:#4382c9; --ramp0:#edeae0; --ramp1:#f2cdb9; --ramp2:#e59a70; --ramp3:#d06a41; --ramp4:#9c4a26; --ink3:#141413; --ink4:#ffffff;}
@media (prefers-color-scheme: dark){svg{--surface:#141413; --primary:#faf9f5; --secondary:#b0aea5; --muted:#85837a; --grid:#292824; --axis:#383630; --claude:#db7448; --codex:#5b95d6; --ramp0:#232221; --ramp1:#4b2b1b; --ramp2:#8a4526; --ramp3:#cf6a3e; --ramp4:#f0a37a; --ink3:#141413; --ink4:#141413;}}
.bg{fill:var(--surface)}
.grid{stroke:var(--grid);stroke-width:1;shape-rendering:crispEdges}
.axis{stroke:var(--axis);stroke-width:1;shape-rendering:crispEdges}
.t{font-family:var(--f);fill:var(--primary)}
.t2{font-family:var(--f);fill:var(--secondary)}
.tm{font-family:var(--f);fill:var(--muted);font-variant-numeric:tabular-nums}
.ts{font-family:var(--fs);fill:var(--primary)}
.tn{font-family:var(--fm);fill:var(--primary);font-variant-numeric:tabular-nums}
.s-claude{fill:var(--claude)}.s-codex{fill:var(--codex)}
.r0{fill:var(--ramp0)}.r1{fill:var(--ramp1)}.r2{fill:var(--ramp2)}.r3{fill:var(--ramp3)}.r4{fill:var(--ramp4)}
.on3{fill:var(--ink3)}.on4{fill:var(--ink4)}
.wip{opacity:.5}
.hx{font-family:"Chalkboard SE","Comic Sans MS","Segoe Print","Bradley Hand",cursive;fill:var(--primary)}.hx2{font-family:"Chalkboard SE","Comic Sans MS","Segoe Print","Bradley Hand",cursive;fill:var(--secondary)}.hxm{font-family:"Chalkboard SE","Comic Sans MS","Segoe Print","Bradley Hand",cursive;fill:var(--muted)}.ink{stroke:var(--primary);fill:none;stroke-linecap:round;stroke-linejoin:round}.ln{fill:none;stroke-width:2.5;stroke-linecap:round;stroke-linejoin:round}.lc{stroke:var(--claude)}.lx{stroke:var(--codex)}.draw{stroke-dasharray:3200;animation:dw 1.5s ease-out both}@keyframes dw{from{stroke-dashoffset:3200}to{stroke-dashoffset:0}}.late{animation:fi .5s ease-out 1.25s both}@keyframes fi{from{opacity:0}to{opacity:1}}
@media (prefers-reduced-motion: reduce){*{animation:none !important}}
</style>
<rect class="bg" width="880" height="400"/>
<text class="hx" x="28.0" y="46.0" font-size="23" text-anchor="start" font-weight="700" transform="rotate(-0.3 28.0 46.0)">MY AI TOKEN CONSUMPTION</text>
<text class="hx2" x="30.0" y="68.0" font-size="12.5" text-anchor="start" transform="rotate(-0.5 30.0 68.0)">JUL 28 – AUG 26  ·  4.9B tokens, allegedly</text>
<path class="ink" stroke-width="2" d="M84.1,341.9 Q84.0,333.0 84.1,328.8 Q84.2,324.6 84.0,320.4 Q83.9,316.1 83.9,311.6 Q83.8,307.1 84.1,302.2 Q84.3,297.4 84.2,292.8 Q84.2,288.2 84.1,283.6 Q84.1,279.1 83.8,274.4 Q83.6,269.8 83.9,265.9 Q84.3,262.0 84.1,257.1 Q83.9,252.3 83.9,247.1 Q83.9,241.9 83.7,237.9 Q83.5,233.8 83.9,229.7 Q84.4,225.7 84.2,220.9 Q84.1,216.1 84.2,211.2 Q84.3,206.3 83.9,201.8 Q83.5,197.3 83.8,193.4 Q84.1,189.5 83.8,185.3 Q83.6,181.1 83.9,176.3 Q84.3,171.5 84.1,166.9 Q84.0,162.3 83.7,157.7 Q83.5,153.1 83.7,148.9 Q83.9,144.7 83.8,140.1 Q83.7,135.6 83.6,130.8 Q83.5,126.1 83.9,121.8 Q84.2,117.4 84.2,112.8 Q84.1,108.1 83.9,103.6 Q83.6,99.1 83.6,94.7 Q83.7,90.3 83.7,86.1 Q83.7,81.9 83.8,77.0 L84.0,72.1"/>
<path class="ink" stroke-width="2" d="M87.3,78.2 L84.0,72.0 M84.0,72.0 L80.7,78.2"/>
<path class="ink" stroke-width="2" d="M79.8,338.2 Q89.6,339.1 94.0,338.6 Q98.4,338.1 103.1,337.8 Q107.8,337.5 112.2,337.8 Q116.6,338.1 120.8,338.4 Q125.1,338.7 129.8,338.6 Q134.5,338.4 139.0,338.4 Q143.5,338.4 148.1,338.2 Q152.7,338.0 157.0,338.3 Q161.4,338.7 165.9,338.7 Q170.5,338.7 175.0,338.5 Q179.5,338.4 184.3,338.3 Q189.0,338.2 193.4,337.7 Q197.7,337.2 202.7,338.1 Q207.7,338.9 212.2,338.9 Q216.6,338.9 220.8,338.4 Q225.0,337.9 229.7,338.5 Q234.4,339.0 239.1,338.6 Q243.7,338.2 248.1,338.6 Q252.5,339.0 257.1,338.6 Q261.8,338.3 266.4,338.1 Q270.9,338.0 275.8,338.0 Q280.6,338.0 284.9,338.5 Q289.2,339.1 294.0,338.6 Q298.8,338.2 303.3,337.7 Q307.8,337.3 312.2,337.2 Q316.7,337.1 320.9,337.5 Q325.1,338.0 330.0,338.5 Q334.9,338.9 339.3,338.2 Q343.7,337.4 348.2,338.0 Q352.6,338.6 357.1,338.6 Q361.6,338.7 366.4,338.8 Q371.3,338.8 376.0,338.7 Q380.7,338.7 384.9,338.2 Q389.1,337.7 393.7,337.8 Q398.2,337.9 402.9,337.4 Q407.6,337.0 411.8,337.9 Q416.0,338.7 420.8,338.6 Q425.5,338.5 430.3,337.7 Q435.1,337.0 439.6,337.7 Q444.2,338.5 448.6,338.6 Q452.9,338.7 457.3,338.8 Q461.7,339.0 466.7,338.5 Q471.7,338.0 475.7,337.6 Q479.8,337.2 484.7,337.6 Q489.7,338.1 493.9,338.0 Q498.1,338.0 502.7,338.1 Q507.2,338.3 511.9,337.9 Q516.6,337.6 521.0,337.6 Q525.5,337.6 530.0,337.3 Q534.4,337.0 539.0,337.8 Q543.7,338.5 548.3,337.9 Q552.9,337.3 557.5,337.5 Q562.2,337.7 566.5,337.8 Q570.8,337.9 575.4,338.4 Q579.9,338.9 584.8,338.8 Q589.7,338.7 593.9,338.5 Q598.1,338.3 603.1,338.6 Q608.1,338.9 612.6,338.3 Q617.0,337.7 621.6,337.7 Q626.3,337.7 630.8,338.3 Q635.4,338.8 639.8,338.6 Q644.3,338.3 648.5,337.9 Q652.7,337.5 657.6,338.1 Q662.5,338.7 667.1,337.8 Q671.8,336.9 676.3,337.9 Q680.8,338.9 685.2,338.6 Q689.7,338.4 694.0,338.1 Q698.3,337.8 703.1,338.3 Q707.9,338.8 712.3,337.9 Q716.7,337.0 721.4,337.0 Q726.1,337.0 730.5,337.4 Q734.9,337.9 739.5,337.8 L744.1,337.8"/>
<path class="ink" stroke-width="2" d="M737.8,341.3 L744.0,338.0 M744.0,338.0 L737.8,334.7"/>
<path class="ink" stroke-width="1.6" d="M79.1,289.5 Q83.1,289.7 85.1,289.6 L87.0,289.5"/>
<path class="ink" stroke-width="1.6" d="M79.1,241.4 Q83.1,240.6 85.0,241.0 L86.9,241.3"/>
<text class="hxm" x="73.0" y="245.2" font-size="12" text-anchor="end" transform="rotate(-0.1 73.0 245.2)">200M</text>
<path class="ink" stroke-width="1.6" d="M78.9,192.7 Q83.1,193.2 85.0,192.9 L86.9,192.6"/>
<path class="ink" stroke-width="1.6" d="M79.0,144.2 Q82.8,144.0 84.9,144.2 L87.0,144.5"/>
<text class="hxm" x="73.0" y="148.4" font-size="12" text-anchor="end" transform="rotate(1.4 73.0 148.4)">400M</text>
<path class="ink" stroke-width="1.6" d="M78.9,96.1 Q83.3,95.6 85.2,95.8 L87.1,95.9"/>
<path class="ink" stroke-width="1.6" d="M84.0,336.1 Q83.8,340.4 83.9,342.3 L83.9,344.2"/>
<text class="hxm" x="84.0" y="360.0" font-size="12" text-anchor="middle" transform="rotate(-1.3 84.0 360.0)">JUL 28</text>
<path class="ink" stroke-width="1.6" d="M279.0,335.9 Q278.7,340.1 278.8,342.2 L278.9,344.3"/>
<text class="hxm" x="278.9" y="360.0" font-size="12" text-anchor="middle" transform="rotate(-0.0 278.9 360.0)">AUG 06</text>
<path class="ink" stroke-width="1.6" d="M495.4,335.9 Q495.2,339.5 495.3,341.8 L495.4,344.1"/>
<text class="hxm" x="495.4" y="360.0" font-size="12" text-anchor="middle" transform="rotate(-1.6 495.4 360.0)">AUG 16</text>
<path class="ink" stroke-width="1.6" d="M712.0,335.7 Q711.8,339.9 711.9,342.0 L712.1,344.1"/>
<text class="hxm" x="712.0" y="360.0" font-size="12" text-anchor="middle" transform="rotate(-1.9 712.0 360.0)">AUG 26</text>
<path class="ln lc draw" style="animation-delay:0s" d="M82.3,339.6 Q87.3,332.9 89.3,328.8 Q91.3,324.7 94.0,322.3 Q96.6,319.9 98.5,315.0 Q100.3,310.1 102.9,306.1 Q105.5,302.1 110.5,303.3 Q115.6,304.6 121.3,306.5 Q127.0,308.4 130.7,304.3 Q134.5,300.3 138.6,298.6 Q142.7,296.9 146.0,292.6 Q149.3,288.3 151.0,292.5 Q152.7,296.7 154.3,300.6 Q155.9,304.4 158.1,310.0 Q160.4,315.6 162.2,319.6 Q164.0,323.6 166.0,326.7 Q168.0,329.8 168.9,333.3 Q169.8,336.8 173.4,334.9 Q177.1,333.1 181.0,331.2 Q184.9,329.3 188.1,325.8 Q191.4,322.3 195.9,320.8 Q200.4,319.4 203.7,316.7 Q207.1,314.0 210.5,312.0 Q213.9,310.0 217.7,308.7 Q221.5,307.3 225.0,305.1 Q228.4,302.9 232.4,300.4 Q236.4,298.0 237.5,294.0 Q238.6,290.1 239.3,286.7 Q240.0,283.2 241.3,279.3 Q242.6,275.3 243.9,271.0 Q245.3,266.6 245.8,262.5 Q246.3,258.3 247.0,254.5 Q247.8,250.6 248.8,246.8 Q249.7,243.0 251.5,239.1 Q253.2,235.2 254.1,231.0 Q255.1,226.7 256.1,223.2 Q257.1,219.6 259.5,216.0 Q261.9,212.4 264.1,207.6 Q266.2,202.9 268.1,198.7 Q270.1,194.5 272.7,191.8 Q275.3,189.1 276.6,185.2 Q277.9,181.4 278.9,184.9 Q279.9,188.4 281.1,192.2 Q282.4,196.0 283.0,201.5 Q283.5,207.0 285.2,211.4 Q286.9,215.7 287.0,219.1 Q287.1,222.5 288.8,225.9 Q290.5,229.3 290.6,235.2 Q290.8,241.1 291.6,245.6 Q292.4,250.0 294.2,253.6 Q296.0,257.1 296.2,260.4 Q296.3,263.8 297.3,269.2 Q298.3,274.7 299.6,277.4 Q300.9,280.0 304.8,283.1 Q308.7,286.1 312.0,288.6 Q315.3,291.2 318.5,293.2 Q321.8,295.2 327.9,297.1 Q334.0,299.0 338.5,301.4 Q343.0,303.7 345.9,306.8 Q348.7,309.8 351.8,314.7 Q355.0,319.5 357.7,323.3 Q360.5,327.1 363.1,331.0 Q365.6,335.0 370.9,332.9 Q376.1,330.7 381.6,327.2 Q387.0,323.6 389.4,320.5 Q391.7,317.4 393.2,314.0 Q394.6,310.6 396.1,306.3 Q397.6,301.9 399.3,298.1 Q401.0,294.4 403.5,290.4 Q406.0,286.5 407.3,282.8 Q408.6,279.0 412.4,280.1 Q416.1,281.2 420.0,283.7 Q424.0,286.2 427.2,288.2 Q430.5,290.3 436.4,293.2 Q442.2,296.2 447.1,298.1 Q452.0,300.0 455.4,297.6 Q458.8,295.2 462.8,291.5 Q466.8,287.7 470.7,285.3 Q474.7,282.9 476.0,288.1 Q477.4,293.4 480.1,297.3 Q482.9,301.3 484.9,304.0 Q487.0,306.7 489.4,309.7 Q491.7,312.7 494.1,316.0 Q496.4,319.3 499.6,315.8 Q502.7,312.4 506.5,310.3 Q510.2,308.2 514.1,303.8 Q517.9,299.4 520.9,303.2 Q524.0,306.9 527.8,308.0 Q531.7,309.1 535.5,311.7 Q539.2,314.3 539.9,311.3 Q540.6,308.3 541.7,302.9 Q542.9,297.5 543.3,295.0 Q543.8,292.5 545.2,287.3 Q546.6,282.1 548.1,279.3 Q549.6,276.5 550.6,271.8 Q551.6,267.1 551.6,262.3 Q551.6,257.5 553.4,254.5 Q555.2,251.5 555.7,248.0 Q556.2,244.5 557.3,239.3 Q558.5,234.1 559.5,230.2 Q560.6,226.3 561.8,230.2 Q563.0,234.1 563.3,238.5 Q563.5,242.9 564.0,247.6 Q564.4,252.4 565.4,255.3 Q566.4,258.2 567.7,261.7 Q569.0,265.2 570.1,270.0 Q571.3,274.8 571.6,277.9 Q571.9,281.0 572.4,285.7 Q572.9,290.4 574.4,295.1 Q575.9,299.8 576.5,302.1 Q577.0,304.4 577.9,308.8 Q578.7,313.3 579.1,317.6 Q579.5,321.9 580.8,325.9 Q582.0,329.9 585.9,326.3 Q589.8,322.6 593.2,319.1 Q596.6,315.5 600.2,311.1 Q603.8,306.6 606.1,309.8 Q608.4,312.9 611.1,317.2 Q613.8,321.6 616.8,324.9 Q619.8,328.3 622.7,333.8 Q625.5,339.4 630.8,338.4 Q636.1,337.3 641.5,338.7 Q646.9,340.0 652.8,337.5 Q658.7,335.0 663.4,335.8 Q668.1,336.5 673.6,333.3 Q679.1,330.1 684.8,328.5 Q690.4,326.9 694.0,328.8 Q697.6,330.8 702.3,332.6 Q706.9,334.4 710.8,336.7 L714.7,339.1"/>
<path class="ln lx draw" style="animation-delay:.3s" d="M81.9,335.8 Q90.4,330.8 94.4,328.6 Q98.3,326.3 101.9,322.9 Q105.4,319.5 111.4,319.9 Q117.3,320.3 122.0,319.1 Q126.8,317.8 132.2,319.8 Q137.6,321.7 143.7,323.8 Q149.8,325.9 154.6,327.1 Q159.4,328.4 165.4,328.9 Q171.4,329.5 171.8,326.5 Q172.1,323.5 173.6,319.5 Q175.2,315.5 176.0,310.0 Q176.9,304.4 178.5,301.3 Q180.1,298.2 181.0,293.0 Q181.9,287.9 183.8,283.6 Q185.7,279.4 187.1,276.6 Q188.4,273.8 189.4,268.4 Q190.4,263.0 190.9,260.1 Q191.3,257.2 193.0,261.2 Q194.6,265.2 196.5,269.0 Q198.3,272.8 199.1,276.2 Q200.0,279.5 201.6,284.3 Q203.3,289.0 204.2,292.8 Q205.2,296.7 207.3,300.1 Q209.4,303.5 210.3,307.5 Q211.2,311.5 212.7,317.0 Q214.2,322.5 216.2,318.8 Q218.3,315.2 220.1,310.5 Q221.8,305.8 223.7,300.6 Q225.6,295.3 226.6,292.2 Q227.5,289.0 230.1,284.0 Q232.7,279.1 233.8,275.1 Q234.9,271.1 238.5,270.3 Q242.0,269.4 246.2,265.6 Q250.3,261.8 253.3,260.5 Q256.3,259.1 262.0,259.1 Q267.7,259.2 273.3,260.6 Q278.8,262.0 281.3,265.0 Q283.8,268.1 286.7,273.4 Q289.6,278.7 292.7,282.6 Q295.7,286.6 298.2,289.4 Q300.7,292.3 302.3,288.3 Q304.0,284.2 305.4,279.9 Q306.9,275.6 309.0,271.4 Q311.0,267.3 313.4,263.8 Q315.7,260.3 317.0,255.5 Q318.3,250.6 320.0,246.3 Q321.7,241.9 325.3,247.2 Q329.0,252.5 332.8,255.1 Q336.5,257.7 340.6,262.6 Q344.7,267.6 345.3,270.1 Q345.9,272.7 347.2,276.6 Q348.4,280.6 350.2,285.7 Q352.0,290.9 353.2,294.0 Q354.5,297.2 356.3,301.6 Q358.2,306.0 358.8,310.0 Q359.4,314.0 361.4,318.9 Q363.4,323.8 364.0,326.8 Q364.6,329.7 368.6,326.6 Q372.6,323.5 376.0,321.5 Q379.3,319.4 383.1,316.0 Q386.9,312.6 388.3,308.0 Q389.7,303.4 390.4,299.4 Q391.1,295.3 392.7,290.5 Q394.3,285.7 394.6,283.3 Q394.8,280.8 396.2,276.0 Q397.5,271.2 398.8,267.8 Q400.1,264.3 400.8,259.5 Q401.5,254.6 403.0,250.9 Q404.5,247.1 405.9,243.0 Q407.3,238.8 407.9,235.1 Q408.6,231.4 409.1,228.5 Q409.6,225.6 410.8,221.1 Q412.0,216.7 412.4,211.2 Q412.9,205.8 413.8,202.5 Q414.7,199.2 415.2,194.7 Q415.7,190.1 416.2,185.9 Q416.6,181.6 417.6,179.4 Q418.5,177.1 418.9,172.1 Q419.4,167.1 421.1,163.5 Q422.9,159.9 422.7,155.0 Q422.5,150.1 423.3,146.6 Q424.1,143.1 425.6,139.3 Q427.1,135.5 427.6,130.8 Q428.2,126.0 428.2,122.0 Q428.2,118.0 429.6,115.1 Q431.0,112.2 431.5,115.1 Q432.0,117.9 433.0,121.9 Q434.0,125.8 434.5,129.9 Q434.9,134.0 434.9,139.1 Q434.9,144.1 435.8,147.9 Q436.7,151.7 437.1,156.1 Q437.6,160.4 438.4,163.1 Q439.2,165.7 439.8,171.6 Q440.5,177.5 441.2,181.6 Q441.8,185.6 442.4,189.1 Q443.0,192.6 443.7,196.2 Q444.4,199.8 445.4,204.5 Q446.5,209.1 447.6,211.8 Q448.6,214.4 449.2,220.1 Q449.8,225.8 450.1,229.2 Q450.3,232.6 450.9,237.0 Q451.4,241.4 453.8,244.7 Q456.3,248.0 457.4,250.2 Q458.5,252.4 460.6,256.8 Q462.7,261.2 465.1,264.0 Q467.4,266.8 468.9,271.7 Q470.4,276.7 472.4,278.9 Q474.3,281.1 476.7,285.1 Q479.1,289.0 480.9,293.7 Q482.6,298.5 485.2,300.9 Q487.7,303.4 489.8,307.3 Q491.8,311.2 494.1,314.7 Q496.4,318.3 501.2,318.6 Q505.9,319.0 511.3,319.2 Q516.8,319.4 520.9,322.3 Q525.0,325.3 528.4,326.4 Q531.8,327.6 535.3,330.4 Q538.8,333.2 544.6,335.1 Q550.5,337.1 555.3,336.1 Q560.1,335.1 561.2,332.4 Q562.4,329.7 564.6,325.5 Q566.8,321.4 568.0,317.5 Q569.3,313.7 570.3,310.4 Q571.2,307.2 572.7,302.6 Q574.1,297.9 575.6,293.3 Q577.1,288.6 578.4,285.5 Q579.7,282.4 580.7,277.8 Q581.6,273.2 586.7,273.0 Q591.9,272.8 598.2,272.9 Q604.4,272.9 605.2,277.7 Q605.9,282.5 607.6,286.2 Q609.3,289.9 611.1,293.4 Q612.9,296.9 614.1,301.8 Q615.3,306.7 616.6,310.3 Q617.8,313.8 618.6,317.8 Q619.3,321.8 620.8,325.7 Q622.4,329.5 623.6,333.8 Q624.8,338.1 628.7,335.0 Q632.5,331.9 636.1,328.0 Q639.7,324.0 643.3,320.6 Q646.8,317.2 650.1,320.2 Q653.4,323.2 657.0,326.2 Q660.6,329.2 665.1,333.2 Q669.6,337.1 672.6,333.9 Q675.6,330.7 679.6,327.0 Q683.6,323.2 686.8,321.4 Q689.9,319.6 694.1,323.0 Q698.3,326.4 702.7,330.0 Q707.0,333.5 710.9,336.0 L714.7,338.5"/>
<g class="late">
<path fill="none" stroke="var(--claude)" stroke-width="1.6" stroke-linecap="round" d="M744.0,308.0 Q723.8,316.4 719.0,337.7"/>
<path fill="none" stroke="var(--claude)" stroke-width="1.6" stroke-linecap="round" d="M717.6,332.4 L719.0,337.7 M719.0,337.7 L722.6,333.6"/>
<text class="hx" x="750.0" y="306.0" font-size="13" text-anchor="start" font-weight="700" transform="rotate(-1.6 750.0 306.0)">CLAUDE CODE</text>
<text class="hx2" x="750.0" y="322.0" font-size="12" text-anchor="start" transform="rotate(-1.4 750.0 322.0)">569K*</text>
</g>
<g class="late">
<path fill="none" stroke="var(--codex)" stroke-width="1.6" stroke-linecap="round" d="M744.0,308.0 Q723.9,316.1 719.0,337.2"/>
<path fill="none" stroke="var(--codex)" stroke-width="1.6" stroke-linecap="round" d="M717.6,331.8 L719.0,337.2 M719.0,337.2 L722.6,333.0"/>
<text class="hx" x="750.0" y="306.0" font-size="13" text-anchor="start" font-weight="700" transform="rotate(0.3 750.0 306.0)">CODEX</text>
<text class="hx2" x="750.0" y="322.0" font-size="12" text-anchor="start" transform="rotate(-0.1 750.0 322.0)">1.7M*</text>
</g>
<g class="late">
<path class="ink" stroke-width="1.6" d="M447.2,104.5 Q451.0,107.7 451.2,109.5 Q451.3,111.4 452.7,113.1 Q454.1,114.9 453.0,116.6 Q451.9,118.3 450.8,120.4 Q449.6,122.5 448.2,124.1 Q446.8,125.8 445.3,126.9 Q443.8,128.1 441.4,128.6 Q439.0,129.1 436.7,129.7 Q434.3,130.3 431.9,129.9 Q429.5,129.5 427.3,130.3 Q425.1,131.0 422.8,129.2 Q420.6,127.3 418.3,126.2 Q416.1,125.1 414.6,124.0 Q413.0,122.8 412.4,121.3 Q411.7,119.8 410.4,117.7 Q409.1,115.6 409.9,113.6 Q410.8,111.6 410.8,109.8 Q410.8,108.0 412.8,106.2 Q414.8,104.4 416.8,102.8 Q418.8,101.2 420.8,101.4 Q422.8,101.5 425.0,100.0 Q427.2,98.5 429.7,99.0 Q432.2,99.6 434.5,98.7 Q436.9,97.8 439.2,99.2 Q441.5,100.6 443.7,101.6 Q445.9,102.5 447.6,104.6 Q449.4,106.7 450.6,108.1 Q451.9,109.5 452.0,111.1 Q452.2,112.7 452.5,114.7 L452.8,116.7"/>
<path class="ink" stroke-width="1.4" d="M540.5,96.0 Q499.8,113.8 456.5,103.7"/>
<path class="ink" stroke-width="1.4" d="M461.8,102.3 L456.5,103.7 M456.5,103.7 L460.6,107.3"/>
<text class="hx" x="548.5" y="88.0" font-size="13.5" text-anchor="start" font-weight="700" transform="rotate(0.2 548.5 88.0)">THE DAY THE AGENTS TOOK OVER</text>
<text class="hx2" x="550.5" y="105.0" font-size="12" text-anchor="start" transform="rotate(0.3 550.5 105.0)">(468M tokens. one day. aug 13.)</text>
</g>
<text class="hxm" x="28.0" y="386.0" font-size="11" text-anchor="start" transform="rotate(0.4 28.0 386.0)">Generated 2026-08-25 16:30 UTC</text>
</svg>
